<svg width="24" height="24" viewBox="0 0 24 24" fill="none" xmlns="http://www.w3.org/2000/svg">
<path d="M11.9448 0.343199C13.0461 0.314361 12.8828 5.54461 11.5797 12.0248C10.2765 18.5049 8.32711 23.7811 7.22584 23.81C6.12507 23.8374 6.28888 18.6085 7.59176 12.1293C8.8947 5.64992 10.8434 0.373461 11.9448 0.343199ZM17.4581 4.7787C18.2608 4.75853 18.2697 7.93327 17.478 11.8704C16.6863 15.8073 15.3937 19.0163 14.5907 19.0382C13.7877 19.0592 13.7781 15.884 14.5698 11.9465C15.3617 8.0089 16.6551 4.79973 17.4581 4.7787ZM4.32698 8.01962C4.94629 8.00379 5.06886 9.87899 4.6006 12.2076C4.13233 14.536 3.25048 16.4367 2.63104 16.4533C2.0116 16.4696 1.88899 14.595 2.35723 12.2663C2.82553 9.9375 3.70751 8.03584 4.32698 8.01962ZM22.4399 7.54532C23.0594 7.5291 23.1818 9.40445 22.7135 11.7333C22.2452 14.062 21.3634 15.9628 20.744 15.979C20.1247 15.9949 20.002 14.1205 20.4702 11.792C20.9384 9.46339 21.8204 7.56185 22.4399 7.54532Z" fill="white"/>
</svg>
